<svg width="64" height="65" viewBox="0 0 64 65" fill="none" xmlns="http://www.w3.org/2000/svg">
<path d="M32 0L37.0988 17.0453L51.3969 6.20695L45.3488 22.9485L63.3849 22.4569L48.5 32.5L63.3849 42.5431L45.3488 42.0515L51.3969 58.7931L37.0988 47.9547L32 65L26.9012 47.9547L12.6031 58.7931L18.6512 42.0515L0.615135 42.5431L15.5 32.5L0.615135 22.4569L18.6512 22.9485L12.6031 6.20695L26.9012 17.0453L32 0Z" fill="#FEEBA7"/>
<path d="M32 0L37.0988 17.0453L51.3969 6.20695L45.3488 22.9485L63.3849 22.4569L48.5 32.5L63.3849 42.5431L45.3488 42.0515L51.3969 58.7931L37.0988 47.9547L32 65L26.9012 47.9547L12.6031 58.7931L18.6512 42.0515L0.615135 42.5431L15.5 32.5L0.615135 22.4569L18.6512 22.9485L12.6031 6.20695L26.9012 17.0453L32 0Z" fill="#FEEBA7"/>
<path d="M32 0L37.0988 17.0453L51.3969 6.20695L45.3488 22.9485L63.3849 22.4569L48.5 32.5L63.3849 42.5431L45.3488 42.0515L51.3969 58.7931L37.0988 47.9547L32 65L26.9012 47.9547L12.6031 58.7931L18.6512 42.0515L0.615135 42.5431L15.5 32.5L0.615135 22.4569L18.6512 22.9485L12.6031 6.20695L26.9012 17.0453L32 0Z" fill="#FEEBA7"/>
</svg>
